# xmcd
#
# Track frame offsets: 
#        150
#        14692
#        29181
#        41914
#        56672
#        73449
#        86170
#        99823
#        114343
#        129127
#        141676
#        157564
#        171077
#        181985
#        193913
#        209913
#        220368
#        237036
#        251315
#        263770
#        276487
#        285593
#        299870
#        315289
#        329841
#
# Disc length: 4545 seconds
#
# Revision: 0
# Processed by: cddbd v1.5.2PL0 Copyright (c) Steve Scherf et al.
# Submitted via: ExactAudioCopy v0.95b3
#
DISCID=9411bf19
DTITLE=Benny Goodman and His Orchestra  - The Essential BG - Disc 1 - Ki
DTITLE=ng Porter Stomp
DYEAR=1900
DGENRE=
TTITLE0=Basin Street Blues
TTITLE1=I Gotta Right To Sing The Blues
TTITLE2=Your Mother's Son-in-law
TTITLE3=Ol' Pappy
TTITLE4=Moonglow
TTITLE5=Nitwit Serenade
TTITLE6=Bugle Call Rag
TTITLE7=Music Hall Rag
TTITLE8=Blue Moon
TTITLE9=Down Home Rag
TTITLE10=Japanese Sandman
TTITLE11=You're A Heavenly Thing
TTITLE12=Get Rhythm In Your Feet
TTITLE13=Ballad In Blue
TTITLE14=Blue Skies
TTITLE15=Dear Old Southland
TTITLE16=Sometimes I'm Happy
TTITLE17=King Porter Stomp
TTITLE18=The Devil And The Deep Blue Sea
TTITLE19=Madhouse
TTITLE20=Eeny Meeny Miney Mo
TTITLE21=When Buddah Smiles
TTITLE22=It's Been So Long
TTITLE23=Stompin' At The Savoy
TTITLE24=Goody-Goody
EXTD=
EXTT0=
EXTT1=
EXTT2=
EXTT3=
EXTT4=
EXTT5=
EXTT6=
EXTT7=
EXTT8=
EXTT9=
EXTT10=
EXTT11=
EXTT12=
EXTT13=
EXTT14=
EXTT15=
EXTT16=
EXTT17=
EXTT18=
EXTT19=
EXTT20=
EXTT21=
EXTT22=
EXTT23=
EXTT24=
PLAYORDER=
